<?xml version="1.0"?>
<svg version="1.1" xmlns="http://www.w3.org/2000/svg" width="400" height="200" style="border: dashed 2px #aaa"><path fill="#" d="M27.42,111.16c0,3.276-0.684,5.76-2.52,7.2c-1.188,0.936-2.916,1.44-5.256,1.44c-0.648,0-1.8-0.108-2.592-0.252c-0.432-0.072-0.576-0.288-0.576-0.576c0-0.108,0-0.216,0.036-0.36l0.36-2.016c0.072-0.324,0.18-0.576,0.612-0.576c0.072,0,0.144,0.036,0.252,0.036c0.648,0.108,1.368,0.216,1.908,0.216c0.936,0,1.908-0.324,2.412-0.972c0.504-0.684,0.756-1.8,0.756-3.348l0-14.4l-4.068,0c-0.576,0-0.756-0.36-0.756-0.792l0-1.476c0-0.504,0.252-0.756,0.756-0.756l7.812,0c0.54,0,0.864,0.324,0.864,0.828l0,15.804z M52.674,119.008c0,0.288-0.216,0.432-0.54,0.432l-3.276,0c-0.648,0-1.08-0.18-1.404-0.72l-5.184-8.46l-2.772,0l0,8.28c0,0.54-0.216,0.9-0.828,0.9l-2.952,0c-0.612,0-0.864-0.288-0.864-0.9l0-22.968c0-0.792,0.18-1.044,0.972-1.044l5.328,0c3.132,0,6.444,0.468,8.352,2.664c1.152,1.332,1.728,3.096,1.728,5.04c0,3.312-1.764,5.904-4.644,7.164l5.904,9.108c0.108,0.18,0.18,0.36,0.18,0.504z M46.518,102.304c0-3.132-2.088-4.248-5.22-4.248l-1.8,0l0,8.712l2.232,0c2.88,0,4.788-1.548,4.788-4.464z"/><path fill="#" d=""/></svg>
